<?xml version="1.0" encoding="UTF-8"?>
<svg xmlns="http://www.w3.org/2000/svg" xmlns:xlink="http://www.w3.org/1999/xlink" width="316px" height="57px" viewBox="0 0 316 57">
<style type="text/css"><![CDATA[
.style0 {
  font-size: 10px;
  font-family: "Oswald", sans-serif;
  font-weight: bold;
  fill: rgb(169,152,83);
  text-transform: uppercase;
}
]]></style>
<path fillRule="evenodd" d="M 52.79 20.11C 52.79 20.11 53.98 19.98 53.98 19.98 53.98 19.98 54.08 19.84 54.08 19.84 54.38 19.49 54.5 18.97 54.39 18.54 54.3 18.21 54.09 17.95 53.81 17.84 53.81 17.84 53.72 17.8 53.72 17.8 53.72 17.8 53.62 17.81 53.62 17.81 52.21 17.92 50.64 17.98 48.67 17.98 46.94 17.98 45.43 17.91 43.55 17.81 43.55 17.81 43.44 17.8 43.44 17.8 43.44 17.8 43.33 17.86 43.33 17.86 43.05 18.01 42.85 18.28 42.79 18.61 42.7 19.02 42.84 19.47 43.16 19.85 43.16 19.85 43.27 19.98 43.27 19.98 43.27 19.98 45.01 20.11 45.01 20.11 45.92 20.16 46.38 20.45 46.38 20.99 46.38 21.46 45.77 23.2 45.24 24.73 45.09 25.16 44.94 25.59 44.8 25.99 44.4 27.07 41.57 34.56 40.52 37.22 39.15 40.75 37.7 44.36 36.09 48.21 35.21 46.08 34.29 43.95 33.4 41.88 32.6 40.01 31.8 38.14 31.01 36.26 30.68 35.43 30.67 35.11 30.67 35.06 30.67 34.95 30.81 34.51 31.12 33.86 31.88 32 34.13 27.05 35.28 24.91 35.42 24.64 35.56 24.36 35.69 24.09 36.67 22.11 37.59 20.24 39.33 20.11 39.33 20.11 41.08 19.98 41.08 19.98 41.08 19.98 41.19 19.82 41.19 19.82 41.46 19.45 41.55 18.93 41.43 18.5 41.35 18.19 41.17 17.96 40.92 17.85 40.92 17.85 40.82 17.8 40.82 17.8 40.82 17.8 40.71 17.81 40.71 17.81 39.36 17.93 37.12 17.98 35.6 17.98 33.66 17.98 32.07 17.92 30.6 17.81 30.6 17.81 30.5 17.8 30.5 17.8 30.5 17.8 30.4 17.85 30.4 17.85 30.14 17.96 29.95 18.19 29.86 18.49 29.74 18.91 29.83 19.39 30.11 19.81 30.11 19.81 30.23 19.98 30.23 19.98 30.23 19.98 32.04 20.11 32.04 20.11 32.58 20.14 32.86 20.23 32.96 20.39 33.31 20.95 32.54 23.07 31.73 25.08 30.69 27.78 29.8 29.8 28.98 31.6 27.84 28.95 26.38 25.49 25.23 22.65 24.92 21.89 24.47 20.75 24.65 20.44 24.8 20.21 25.67 20.13 26 20.11 26 20.11 27.58 19.98 27.58 19.98 27.58 19.98 27.7 19.82 27.7 19.82 27.96 19.45 28.05 18.93 27.94 18.5 27.85 18.19 27.67 17.96 27.42 17.85 27.42 17.85 27.32 17.8 27.32 17.8 27.32 17.8 27.21 17.81 27.21 17.81 26 17.92 24.03 17.98 21.36 17.98 19.17 17.98 17.15 17.92 15.66 17.81 15.66 17.81 15.54 17.8 15.54 17.8 15.54 17.8 15.43 17.86 15.43 17.86 15.14 18.01 14.95 18.28 14.88 18.63 14.79 19.05 14.91 19.5 15.2 19.84 15.2 19.84 15.31 19.98 15.31 19.98 15.31 19.98 16.77 20.11 16.77 20.11 18.32 20.25 19.05 21.23 19.85 22.97 22.13 28.04 24.06 32.47 25.73 36.51 26.06 37.35 26.13 37.69 26.13 37.82 26.13 37.95 25.95 38.56 25.31 39.98 24.06 42.82 22.74 45.71 21.57 48.28 18.62 41.66 15.57 34.83 12.69 28.07 11.94 26.24 9.94 21.41 9.94 20.65 9.94 20.49 10.31 20.21 11.33 20.11 11.33 20.11 12.73 19.98 12.73 19.98 12.73 19.98 12.84 19.84 12.84 19.84 13.14 19.48 13.26 18.92 13.14 18.48 13.05 18.16 12.84 17.93 12.55 17.83 12.55 17.83 12.47 17.8 12.47 17.8 12.47 17.8 12.39 17.81 12.39 17.81 10.57 17.92 7.9 17.98 6.31 17.98 4.7 17.98 2.3 17.92 0.82 17.81 0.82 17.81 0.7 17.8 0.7 17.8 0.7 17.8 0.6 17.86 0.6 17.86 0.3 18.01 0.09 18.33 0.03 18.72-0.05 19.16 0.07 19.59 0.33 19.87 0.33 19.87 0.43 19.98 0.43 19.98 0.43 19.98 1.87 20.11 1.87 20.11 3.85 20.31 4.44 21.64 5.4 23.84 5.4 23.84 5.44 23.93 5.44 23.93 7.54 28.65 9.61 33.45 11.61 38.1 12.96 41.22 14.31 44.35 15.67 47.48 16.37 49.13 18.46 54.22 19.36 56.56 19.36 56.56 19.42 56.73 19.42 56.73 19.42 56.73 19.59 56.79 19.59 56.79 20.26 57.08 21 57.06 21.44 56.75 21.44 56.75 21.55 56.67 21.55 56.67 21.55 56.67 21.59 56.54 21.59 56.54 22.95 52.44 25.66 46.19 27.87 41.4 28.1 41.92 28.34 42.49 28.59 43.08 30.28 47.05 32.59 52.49 33.98 56.54 33.98 56.54 34.03 56.7 34.03 56.7 34.03 56.7 34.18 56.78 34.18 56.78 34.44 56.92 34.78 57 35.12 57 35.48 57 35.78 56.91 36.01 56.75 36.01 56.75 36.11 56.68 36.11 56.68 36.11 56.68 36.16 56.55 36.16 56.55 38.32 50.6 40.45 45.1 42.85 39.23 42.85 39.23 47.44 28.02 47.44 28.02 50.12 21.44 50.62 20.34 52.79 20.11ZM 86.69 17.07C 83.19 17.07 79.81 17.96 76.9 19.64 74.03 17.94 70.65 17.07 66.88 17.07 55.77 17.07 47.39 25.83 47.39 37.43 47.39 47.15 54.08 57 66.88 57 70.3 57 73.62 56.09 76.49 54.37 79.48 56.11 82.91 57 86.69 57 97.53 57 105.7 48.34 105.7 36.87 105.7 27.33 99.75 17.07 86.69 17.07ZM 67.57 54.41C 57.96 54.41 53.58 44.67 53.58 35.62 53.58 23.84 60.25 19.66 65.97 19.66 68.88 19.66 71.41 20.5 73.5 22.17 69.44 25.98 67.21 31.38 67.21 37.43 67.21 43.41 69.62 48.86 73.85 52.49 72.02 53.75 69.86 54.41 67.57 54.41ZM 77.14 48.99C 74.79 45.61 73.4 40.66 73.4 35.62 73.4 31.28 74.3 27.7 76.08 24.98 78.38 28.34 79.69 33.27 79.69 38.62 79.69 42.8 78.83 46.29 77.14 48.99ZM 87.39 54.41C 84.47 54.41 81.91 53.55 79.78 51.85 83.72 48.08 85.88 42.78 85.88 36.87 85.88 30.68 83.56 25.13 79.5 21.53 81.35 20.32 83.56 19.66 85.78 19.66 95.91 19.66 99.51 29.87 99.51 38.62 99.51 50.28 92.98 54.41 87.39 54.41ZM 306.86 16.34C 306.72 16.34 306.52 16.36 306.35 16.43 306.35 16.43 306.21 16.49 306.21 16.49 306.21 16.49 306.14 16.61 306.14 16.61 305.45 17.88 305.17 17.98 302.33 17.98 302.33 17.98 280.22 17.98 280.22 17.98 277.81 17.98 276.73 17.85 276.5 16.57 276.5 16.57 276.48 16.45 276.48 16.45 276.48 16.45 276.39 16.36 276.39 16.36 276.24 16.2 276 16.12 275.64 16.12 275.51 16.12 275.07 16.13 274.83 16.3 274.83 16.3 274.69 16.4 274.69 16.4 274.69 16.4 274.66 16.58 274.66 16.58 274.29 18.82 273.49 22.39 272.64 24.93 272.64 24.93 272.58 25.09 272.58 25.09 272.58 25.09 272.66 25.24 272.66 25.24 272.87 25.69 273.42 26.02 273.97 26.02 274.24 26.02 274.49 25.94 274.69 25.78 274.69 25.78 274.77 25.72 274.77 25.72 274.77 25.72 274.81 25.62 274.81 25.62 275.36 24.3 275.88 23.06 277.13 21.86 278.3 20.72 280.97 20.56 283.43 20.56 283.43 20.56 286.37 20.56 286.37 20.56 286.79 20.56 287.37 20.56 287.46 20.66 287.56 20.78 287.56 21.32 287.56 21.95 287.56 21.95 287.56 47.2 287.56 47.2 287.56 53.22 287.23 53.61 284.62 53.85 284.62 53.85 282.59 54.03 282.59 54.03 282.59 54.03 282.5 54.09 282.5 54.09 282.18 54.3 282.01 54.72 282.03 55.21 282.05 55.58 282.19 56.03 282.53 56.21 282.53 56.21 282.63 56.27 282.63 56.27 282.63 56.27 282.74 56.26 282.74 56.26 286.21 56.15 288.07 56.09 290.17 56.09 292.28 56.09 294.04 56.15 297.17 56.26 297.17 56.26 297.29 56.27 297.29 56.27 297.29 56.27 297.39 56.21 297.39 56.21 297.82 55.99 297.89 55.34 297.91 55.15 297.94 54.66 297.8 54.28 297.54 54.09 297.54 54.09 297.45 54.03 297.45 54.03 297.45 54.03 295.62 53.85 295.62 53.85 292.95 53.61 292.79 53.23 292.79 47.2 292.79 47.2 292.79 22.07 292.79 22.07 292.79 22.07 292.79 21.89 292.79 21.89 292.79 21.29 292.79 20.76 292.88 20.66 292.96 20.56 293.54 20.56 293.92 20.56 293.92 20.56 297.72 20.56 297.72 20.56 300.59 20.56 302.54 20.99 303.68 21.89 304.19 22.28 304.64 23.72 304.86 25.73 304.86 25.73 304.88 25.85 304.88 25.85 304.88 25.85 304.95 25.94 304.95 25.94 305.15 26.19 305.52 26.34 305.93 26.34 306.45 26.34 306.88 26.11 307.05 25.75 307.05 25.75 307.1 25.64 307.1 25.64 307.1 25.64 307.09 25.53 307.09 25.53 306.93 23.9 307.31 19.34 307.88 17.08 307.88 17.08 307.92 16.94 307.92 16.94 307.92 16.94 307.85 16.81 307.85 16.81 307.65 16.37 307.04 16.34 306.86 16.34ZM 177.32 46.9C 177.32 46.9 177.26 46.78 177.26 46.78 177.06 46.41 176.59 46.18 176.05 46.18 175.74 46.18 175.45 46.26 175.25 46.42 175.25 46.42 175.15 46.49 175.15 46.49 175.15 46.49 175.11 46.61 175.11 46.61 174.03 49.52 171.19 54.41 164.31 54.41 155.04 54.41 148.82 47.18 148.82 36.41 148.82 24.06 156.43 19.66 163.56 19.66 169.55 19.66 173.01 22.25 174.12 27.57 174.12 27.57 174.15 27.71 174.15 27.71 174.15 27.71 174.25 27.8 174.25 27.8 174.48 28.01 174.83 28.13 175.2 28.13 175.69 28.13 176.11 27.93 176.33 27.61 176.33 27.61 176.42 27.48 176.42 27.48 176.42 27.48 176.4 27.33 176.4 27.33 175.98 24 175.71 20.43 175.65 19.06 175.65 19.06 175.63 18.61 175.63 18.61 175.63 18.61 175.18 18.66 175.18 18.66 174.81 18.7 174.5 18.62 173.97 18.48 173.97 18.48 173.85 18.45 173.85 18.45 171.17 17.67 167.04 17.07 164.25 17.07 158.51 17.07 153.41 18.77 149.52 21.97 145.14 25.56 142.62 31.14 142.62 37.26 142.62 43.86 145.38 49.5 150.4 53.14 154.08 55.73 158.52 57 163.98 57 167.41 57 171.35 56.15 172.6 55.67 173.14 55.46 173.77 55.24 174.39 55.13 174.39 55.13 174.56 55.1 174.56 55.1 174.56 55.1 174.66 54.96 174.66 54.96 175.55 53.77 176.93 49.96 177.31 47.03 177.31 47.03 177.32 46.9 177.32 46.9ZM 244.7 54.03C 244.7 54.03 243.14 53.85 243.14 53.85 241.13 53.61 240.51 53.05 238.94 48.15 238.94 48.15 231.59 25.41 231.59 25.41 231.36 24.86 231.09 24.19 230.81 23.47 228.88 18.61 228.05 16.89 227.18 16.89 226.3 16.89 225.65 18.52 224.48 21.98 224.29 22.55 224.11 23.08 223.95 23.51 223.95 23.51 218.49 38.76 218.49 38.76 216.94 43.12 215.72 46.27 214.84 48.58 214.43 49.64 214.08 50.55 213.78 51.35 213.02 53.41 211.85 53.77 210.92 53.85 210.92 53.85 209.72 53.96 209.72 53.96 209.09 53.7 208.53 53.35 208.07 52.93 204.32 49.61 201.42 45.26 197.39 38.41 197.1 37.91 197.06 37.68 197.07 37.58 198.85 36.8 203.88 34.04 203.88 27.83 203.88 23.11 201.34 20.72 199.22 19.56 196.53 18.02 193.08 17.81 190.07 17.81 185.19 17.81 181.38 17.95 178.08 18.26 178.08 18.26 178 18.27 178 18.27 178 18.27 177.93 18.31 177.93 18.31 177.62 18.47 177.42 18.82 177.38 19.26 177.35 19.64 177.45 20.14 177.82 20.42 177.82 20.42 177.91 20.49 177.91 20.49 177.91 20.49 179.73 20.73 179.73 20.73 181.47 20.95 181.72 21.35 181.72 26.93 181.72 26.93 181.72 47.2 181.72 47.2 181.72 53.2 181.59 53.51 178.87 53.85 178.87 53.85 177.37 54.04 177.37 54.04 177.37 54.04 177.26 54.17 177.26 54.17 176.96 54.54 176.93 55.08 177.01 55.46 177.09 55.82 177.26 56.09 177.5 56.21 177.5 56.21 177.6 56.27 177.6 56.27 177.6 56.27 177.71 56.26 177.71 56.26 180.41 56.14 182.28 56.09 184.39 56.09 186.38 56.09 188.17 56.14 190.74 56.26 190.74 56.26 190.86 56.27 190.86 56.27 190.86 56.27 190.96 56.21 190.96 56.21 191.34 56.01 191.44 55.49 191.47 55.28 191.49 55.09 191.53 54.46 191.15 54.12 191.15 54.12 191.05 54.04 191.05 54.04 191.05 54.04 189.81 53.85 189.81 53.85 187.08 53.46 186.95 53.15 186.95 47.2 186.95 47.2 186.95 40.09 186.95 40.09 186.95 39.26 186.95 39.26 189.05 39.26 191.09 39.26 191.79 39.78 192.5 40.88 193.32 42.13 194.28 43.73 195.2 45.27 196.15 46.85 197.05 48.35 197.75 49.41 201.66 55.28 204.56 56.31 209.19 56.31 209.8 56.31 210.38 56.27 210.82 56.2 212 56.14 213.24 56.09 214.43 56.09 215.07 56.11 215.65 56.12 216.19 56.13 217.79 56.16 218.95 56.18 219.97 56.26 219.97 56.26 220.09 56.27 220.09 56.27 220.09 56.27 220.19 56.22 220.19 56.22 220.52 56.07 220.75 55.72 220.79 55.27 220.84 54.8 220.68 54.33 220.37 54.1 220.37 54.1 220.27 54.03 220.27 54.03 220.27 54.03 218.38 53.85 218.38 53.85 217.21 53.75 217.21 53.5 217.21 53.13 217.21 52.73 217.41 51.61 218.37 48.57 218.37 48.57 220.25 42.64 220.25 42.64 220.55 41.67 220.69 41.58 221.88 41.58 221.88 41.58 229.97 41.58 229.97 41.58 231.43 41.58 231.46 41.66 231.77 42.69 231.77 42.69 234.12 50.38 234.12 50.38 234.44 51.37 234.8 52.6 234.8 53.25 234.8 53.47 234.33 53.75 233.3 53.85 233.3 53.85 231.63 54.03 231.63 54.03 231.63 54.03 231.54 54.1 231.54 54.1 231.24 54.32 231.09 54.74 231.13 55.21 231.16 55.67 231.38 56.04 231.7 56.21 231.7 56.21 231.8 56.27 231.8 56.27 231.8 56.27 232.96 56.22 232.96 56.22 234.33 56.16 236.03 56.09 238.06 56.09 240.33 56.09 242.2 56.14 244.52 56.26 244.52 56.26 244.68 56.27 244.68 56.27 244.68 56.27 244.81 56.16 244.81 56.16 245.11 55.91 245.21 55.4 245.2 55.04 245.19 54.62 245.04 54.29 244.79 54.1 244.79 54.1 244.7 54.03 244.7 54.03ZM 195.64 35.36C 194.12 36.58 192.03 36.73 190.39 36.73 187.87 36.73 187.17 36.63 187.02 36.59 186.95 36.37 186.95 35.67 186.95 35 186.95 35 186.95 21.78 186.95 21.78 186.95 20.5 186.95 20.39 190.01 20.39 196.03 20.39 198.16 24.86 198.16 28.67 198.16 31.78 197.34 33.97 195.64 35.36ZM 230.28 38.37C 230.24 38.41 230.06 38.48 229.27 38.48 229.27 38.48 222.69 38.48 222.69 38.48 222.39 38.48 221.93 38.48 221.75 38.44 221.76 38.27 221.89 37.88 221.96 37.68 221.96 37.68 225.33 27.85 225.33 27.85 225.7 26.79 226.03 25.92 226.26 25.33 226.53 26.07 226.84 27.06 227.13 27.96 227.13 27.96 230.05 37.27 230.05 37.27 230.3 38.07 230.31 38.31 230.28 38.37ZM 271.1 18.23C 271.1 18.23 271.1 17.69 271.1 17.69 271.1 17.69 270.58 17.82 270.58 17.82 269.93 17.98 266.64 17.98 263.45 17.98 263.45 17.98 253.59 17.98 253.59 17.98 251.59 17.98 249.79 17.93 247.4 17.81 247.4 17.81 247.29 17.8 247.29 17.8 247.29 17.8 247.18 17.86 247.18 17.86 246.75 18.09 246.68 18.73 246.67 18.93 246.63 19.41 246.77 19.79 247.03 19.98 247.03 19.98 247.12 20.04 247.12 20.04 247.12 20.04 248.08 20.16 248.08 20.16 250.77 20.51 250.92 20.88 250.92 26.87 250.92 26.87 250.92 47.2 250.92 47.2 250.92 53.2 250.79 53.51 248.08 53.85 248.08 53.85 246.59 54.04 246.59 54.04 246.59 54.04 246.49 54.15 246.49 54.15 246.18 54.47 246.14 54.99 246.2 55.38 246.24 55.61 246.36 56.03 246.7 56.21 246.7 56.21 246.8 56.27 246.8 56.27 246.8 56.27 246.91 56.26 246.91 56.26 249.29 56.16 251.14 56.09 253.59 56.09 255.67 56.09 257.39 56.14 260.7 56.26 260.7 56.26 260.81 56.27 260.81 56.27 260.81 56.27 260.91 56.21 260.91 56.21 261.35 55.98 261.42 55.34 261.43 55.15 261.46 54.66 261.33 54.28 261.06 54.09 261.06 54.09 260.97 54.03 260.97 54.03 260.97 54.03 259.04 53.85 259.04 53.85 256.32 53.61 256.15 53.23 256.15 47.2 256.15 47.2 256.15 39.35 256.15 39.35 256.15 38.24 256.15 38.24 257.5 38.24 257.5 38.24 261.15 38.24 261.15 38.24 263.02 38.24 264.42 38.29 265.14 38.5 265.88 38.75 266.3 39.29 266.58 40.35 266.58 40.35 267.14 42.68 267.14 42.68 267.14 42.68 267.24 42.77 267.24 42.77 267.49 42.99 267.88 43.13 268.28 43.13 268.72 43.13 269.09 42.96 269.27 42.68 269.27 42.68 269.33 42.58 269.33 42.58 269.33 42.58 269.33 42.46 269.33 42.46 269.33 41.87 269.29 41.14 269.24 40.29 269.18 39.26 269.12 38.1 269.12 36.98 269.12 35.83 269.18 34.62 269.24 33.56 269.29 32.66 269.33 31.89 269.33 31.27 269.33 31.27 269.33 31.15 269.33 31.15 269.33 31.15 269.27 31.05 269.27 31.05 269.09 30.77 268.7 30.6 268.24 30.6 267.79 30.6 267.39 30.76 267.19 31.02 267.19 31.02 267.13 31.09 267.13 31.09 267.13 31.09 266.63 33.44 266.63 33.44 266.33 34.82 265.97 34.96 265.56 35.12 265 35.32 263.35 35.43 261.15 35.43 261.15 35.43 257.5 35.43 257.5 35.43 256.91 35.43 256.4 35.43 256.28 35.33 256.15 35.24 256.15 34.62 256.15 34.32 256.15 34.32 256.15 22.41 256.15 22.41 256.15 21.53 256.15 20.89 256.28 20.7 256.37 20.57 256.81 20.56 257.34 20.56 257.34 20.56 260.61 20.56 260.61 20.56 262.82 20.56 264.57 20.56 265.69 20.89 267.98 21.51 268.67 23.14 269.14 25.92 269.14 25.92 269.17 26.06 269.17 26.06 269.17 26.06 269.27 26.16 269.27 26.16 269.48 26.35 269.77 26.45 270.1 26.45 270.51 26.45 271.02 26.27 271.22 25.86 271.22 25.86 271.26 25.77 271.26 25.77 271.26 25.77 271.26 25.66 271.26 25.66 271.16 23.6 271.1 20.96 271.1 18.23ZM 130.18 19.53C 127.03 18.31 123.58 17.81 118.24 17.81 114.04 17.81 109.76 17.95 104.77 18.26 104.77 18.26 104.63 18.29 104.63 18.29 104.28 18.44 104.04 18.79 104 19.23 103.95 19.72 104.16 20.2 104.51 20.44 104.51 20.44 104.59 20.49 104.59 20.49 104.59 20.49 105.86 20.67 105.86 20.67 107.7 20.95 108.02 21.71 108.02 25.74 108.02 25.74 108.02 47.2 108.02 47.2 108.02 53.15 107.89 53.46 105.17 53.85 105.17 53.85 103.79 54.04 103.79 54.04 103.79 54.04 103.69 54.15 103.69 54.15 103.39 54.47 103.35 55 103.41 55.38 103.45 55.62 103.57 56.04 103.91 56.21 103.91 56.21 104.01 56.27 104.01 56.27 104.01 56.27 104.12 56.26 104.12 56.26 106.81 56.14 108.69 56.09 110.8 56.09 111.58 56.09 112.65 56.17 113.88 56.27 115.6 56.4 117.54 56.55 119.53 56.55 122.87 56.55 127.71 56.07 131.73 53.78 137.82 50.29 141.32 44.02 141.32 36.58 141.32 28.58 137.15 22.2 130.18 19.53ZM 120.49 53.96C 117.03 53.96 115.28 53.36 114.25 51.83 113.41 50.57 113.25 48.85 113.25 45.9 113.25 45.9 113.25 25.06 113.25 25.06 113.25 24.15 113.25 21.39 113.63 21.09 113.86 20.91 115.28 20.39 118.67 20.39 133.94 20.39 135.12 32.87 135.12 36.7 135.12 47.83 129.93 53.96 120.49 53.96ZM 314.46 19.57C 314.39 19.55 314.34 19.5 314.24 19.42 314.07 19.29 313.88 18.94 313.64 18.4 313.59 18.3 313.59 18.25 313.64 18.22 313.83 18.12 314.07 17.87 314.07 17.51 314.07 16.78 313.4 16.65 312.87 16.65 312.46 16.65 312.03 16.67 311.52 16.7 311.45 16.72 311.45 16.88 311.49 16.98 311.49 16.98 311.59 16.98 311.59 16.98 311.78 17 311.86 17.16 311.86 17.49 311.86 17.49 311.86 18.94 311.86 18.94 311.86 19.34 311.86 19.39 311.59 19.47 311.59 19.47 311.49 19.5 311.49 19.5 311.45 19.52 311.45 19.72 311.52 19.75 311.73 19.75 311.95 19.72 312.22 19.72 312.51 19.72 312.7 19.75 312.94 19.75 312.99 19.72 312.99 19.52 312.94 19.5 312.94 19.5 312.87 19.47 312.87 19.47 312.53 19.42 312.53 19.32 312.53 18.94 312.53 18.94 312.53 18.58 312.53 18.58 312.53 18.53 312.56 18.45 312.67 18.45 312.77 18.45 312.84 18.5 312.89 18.6 313.01 18.83 313.11 19.04 313.23 19.24 313.44 19.62 313.74 19.77 314.12 19.77 314.24 19.77 314.34 19.77 314.46 19.75 314.51 19.72 314.51 19.57 314.46 19.57ZM 312.82 18.15C 312.56 18.15 312.53 18.15 312.53 17.97 312.53 17.97 312.53 17.21 312.53 17.21 312.53 17.05 312.56 17 312.84 17 313.11 17 313.3 17.23 313.3 17.64 313.3 17.84 313.21 18.15 312.82 18.15ZM 312.87 15C 311.13 15 309.74 16.45 309.74 18.22 309.74 20 311.13 21.45 312.87 21.45 314.6 21.45 316 20 316 18.22 316 16.45 314.6 15 312.87 15ZM 312.87 20.89C 311.57 20.89 310.48 19.7 310.48 18.22 310.48 16.72 311.57 15.56 312.87 15.56 314.17 15.56 315.25 16.72 315.25 18.22 315.25 19.7 314.17 20.89 312.87 20.89Z" fill="rgb(0,97,53)"/><text transform="translate(157.49,9.13)" class="style0"><tspan x="-32.73 -23.81 -14.88 -5.91 0.21 9.34 18.47 27.60" fill="rgb(168,151,82)">EST 1928</tspan></text></svg>